<?xml version="1.0" encoding="UTF-8"?>
<svg version="1.1" xmlns="http://www.w3.org/2000/svg" width="1992" height="928">
<path d="M0 0 C382.14 0 764.28 0 1158 0 C1158 90.09 1158 180.18 1158 273 C775.86 273 393.72 273 0 273 C0 182.91 0 92.82 0 0 Z " fill="#105881" transform="translate(608,501)"/>
<path d="M0 0 C119.13 0 238.26 0 361 0 C361 90.09 361 180.18 361 273 C241.87 273 122.74 273 0 273 C0 182.91 0 92.82 0 0 Z " fill="#A7A7A8" transform="translate(226,501)"/>
<path d="M0 0 C1.18625977 0.29801514 1.18625977 0.29801514 2.39648438 0.60205078 C36.58361569 9.42645533 67.78445199 30.32325875 86.37890625 60.8203125 C106.91973281 95.73110514 113.60830364 137.09469463 103.80249023 176.68408203 C93.93422276 213.65410928 71.03859608 244.06710594 38.09082031 263.58325195 C4.00687986 283.18931255 -37.69318191 287.21627868 -75.51049805 277.15136719 C-91.69690022 272.50990009 -107.54416421 265.17735861 -121 255 C-121.89332031 254.32710938 -122.78664063 253.65421875 -123.70703125 252.9609375 C-153.58991987 229.44793501 -172.39395313 196.46957649 -177.25 158.75 C-181.33977224 122.24846359 -173.85277022 82.63779803 -151.0625 53.0625 C-127.27498191 23.75687427 -96.61344166 3.9547476 -59 -2 C-57.865625 -2.18433594 -56.73125 -2.36867187 -55.5625 -2.55859375 C-37.7503538 -4.68417368 -17.38080966 -4.4821226 0 0 Z M-75 94 C-86.98235519 110.06870013 -90.35101188 129.65732444 -88.5390625 149.3359375 C-86.29367293 164.59807819 -81.04253102 179.68770967 -68.80078125 189.8203125 C-55.35626984 199.15873404 -40.07863423 201.97589001 -23.94384766 199.71142578 C-10.73441634 197.29288896 0.25481649 191.06922632 8 180 C19.6947592 160.32833262 21.70658787 137.96825864 16.22265625 115.8671875 C11.89939627 101.65423839 4.48796736 90.66493571 -8.44140625 83.28515625 C-29.60187624 72.65646216 -58.9190035 76.06461831 -75 94 Z " fill="#115881" transform="translate(1414,159)"/>
<path d="M0 0 C1.21115479 0.29801514 1.21115479 0.29801514 2.44677734 0.60205078 C14.38549757 3.636163 25.3173468 7.86996464 36 14 C36.91604004 14.52400391 36.91604004 14.52400391 37.85058594 15.05859375 C46.93580254 20.35547391 54.48990765 26.67683528 62 34 C62.70511719 34.63164062 63.41023438 35.26328125 64.13671875 35.9140625 C78.09003598 48.76356762 86.85922933 67.07038857 92.875 84.75 C93.30474121 86.00816528 93.30474121 86.00816528 93.74316406 87.29174805 C95.24776233 91.9363578 96.31714984 96.50183331 97.09033203 101.32519531 C97.26291534 102.39199524 97.43549866 103.45879517 97.61331177 104.55792236 C97.80472244 105.76675079 97.80472244 105.76675079 98 107 C85.99580122 107.2782613 73.99237133 107.49136486 61.98560238 107.62174606 C56.40989587 107.68433105 50.83639799 107.76917703 45.26196289 107.90527344 C39.88011132 108.03584293 34.50038064 108.10744348 29.11706734 108.13852692 C27.06548215 108.16067014 25.01401097 108.20391711 22.96333122 108.26876068 C9.87650517 108.66604459 9.87650517 108.66604459 5 107 C2.05345556 104.17065813 0.72721407 101.85815672 -0.73802185 98.065979 C-3.93609487 90.29625278 -12.23139664 85.25253854 -19.65625 81.9296875 C-31.34314716 77.29388496 -44.35837358 77.57375907 -56.1640625 81.7421875 C-68.03755729 87.00839318 -75.14188494 97.30508472 -80 109 C-86.57992443 128.45814228 -86.53125382 152.70903485 -78.21875 171.6640625 C-72.3471522 182.91795827 -64.13359977 191.55654377 -51.98828125 195.68359375 C-39.35420837 199.06980552 -26.53943165 197.3749358 -14.98828125 191.45703125 C-5.07030929 185.54413391 -0.61646305 179.10963349 5 169 C35.69 169 66.38 169 98 169 C91.18394555 203.08027225 76.6822612 233.88737358 47.8125 254.75 C13.71281025 277.01240403 -28.3204774 284.7834886 -68.4453125 277.03515625 C-102.21791372 269.65793078 -132.02083942 252.40612477 -151.31225586 223.1015625 C-174.86835887 185.80556025 -179.25361001 139.51605682 -169.93359375 96.98046875 C-167.45410989 86.4486958 -163.76811328 76.69689125 -159 67 C-158.443125 65.85789062 -157.88625 64.71578125 -157.3125 63.5390625 C-142.23838957 34.15850468 -115.79194473 12.9124768 -84.58618164 2.75195312 C-81.08714537 1.70039957 -77.55841919 0.82498509 -74 0 C-73.33790527 -0.16226074 -72.67581055 -0.32452148 -71.99365234 -0.49169922 C-49.84292676 -5.69763012 -22.05738522 -5.54548673 0 0 Z " fill="#115881" transform="translate(1116,161)"/>
<path d="M0 0 C64.68 0 129.36 0 196 0 C196 23.1 196 46.2 196 70 C160.03 70 124.06 70 87 70 C87 82.54 87 95.08 87 108 C112.74 108 138.48 108 165 108 C165 129.78 165 151.56 165 174 C139.26 174 113.52 174 87 174 C87 208.32 87 242.64 87 278 C58.29 278 29.58 278 0 278 C0 186.26 0 94.52 0 0 Z " fill="#105781" transform="translate(226,160)"/>
<path d="M0 0 C24.42 0 48.84 0 74 0 C91.4551754 37.77409052 91.4551754 37.77409052 100 56.5 C105.63472857 68.84818882 111.30563532 81.17920073 117 93.5 C123.0243284 106.53473613 129.01821912 119.58279723 134.97949219 132.64648438 C140.28851401 144.27878892 145.63559937 155.89313829 151 167.5 C157.02231132 180.53037181 163.01451806 193.57392044 168.97344971 206.63339233 C174.02096379 217.69362358 179.1022626 228.73789868 184.20220947 239.77404785 C186.45963416 244.66014168 188.7141586 249.54757467 190.96890259 254.43490601 C192.56442664 257.89260996 194.16123218 261.34969412 195.76367188 264.80419922 C197.22236284 267.9505617 198.67468533 271.09977038 200.125 274.25 C200.53282715 275.12438721 200.9406543 275.99877441 201.36083984 276.8996582 C201.89765381 278.07081177 201.89765381 278.07081177 202.4453125 279.265625 C202.74969238 279.92336914 203.05407227 280.58111328 203.36767578 281.25878906 C204 283 204 283 204 286 C179.91 286 155.82 286 131 286 C121.81329114 267.62658228 121.81329114 267.62658228 119.09765625 261.64453125 C118.77812485 260.94708298 118.45859344 260.2496347 118.12937927 259.53105164 C117.10453988 257.2926887 116.08351529 255.05260946 115.0625 252.8125 C114.32451439 251.19908349 113.58622588 249.5858055 112.84765625 247.97265625 C111.32061708 244.63675958 109.7948536 241.30028407 108.27001953 237.96337891 C104.69217352 230.13666169 101.09467521 222.3190016 97.5 214.5 C89 196 80.5 177.5 72 159 C71.67 201.24 71.34 243.48 71 287 C47.57 287 24.14 287 0 287 C0 192.29 0 97.58 0 0 Z " fill="#105781" transform="translate(1562,155)"/>
<path d="M0 0 C0.65392731 -0.00058411 1.30785461 -0.00116821 1.9815979 -0.00177002 C4.14102443 0.00101468 6.29906692 0.03212114 8.45825195 0.06347656 C9.95611314 0.07093767 11.45398409 0.07663122 12.95185852 0.08062744 C16.89274077 0.0958943 20.83303256 0.13518432 24.77368164 0.17944336 C28.79541028 0.22037389 32.81723441 0.23863366 36.83911133 0.25878906 C44.72935614 0.3016783 52.61912121 0.36994148 60.5090332 0.45410156 C67.07576297 19.89448405 73.37140094 39.39650485 79.3840332 59.01660156 C80.12329635 61.41969487 80.86287942 63.82268979 81.6027832 66.22558594 C83.25927157 71.60742881 84.91494221 76.98951071 86.5602417 82.37478638 C87.24166793 84.58636409 87.93354375 86.79473223 88.63214111 89.00094604 C88.99902039 90.16618805 89.36589966 91.33143005 89.74389648 92.53198242 C90.24990891 94.12386635 90.24990891 94.12386635 90.7661438 95.74790955 C91.5090332 98.45410156 91.5090332 98.45410156 91.5090332 101.45410156 C90.95143311 101.5240332 90.39383301 101.59396484 89.81933594 101.66601562 C70.55200655 104.12811709 53.39102671 107.71431129 36.7355957 118.20019531 C34.5090332 119.45410156 34.5090332 119.45410156 31.5090332 119.45410156 C31.36280518 118.91406494 31.21657715 118.37402832 31.06591797 117.81762695 C30.40459765 115.38299234 29.73813633 112.94979478 29.0715332 110.51660156 C28.84143555 109.66646484 28.61133789 108.81632812 28.37426758 107.94042969 C28.04072266 106.72709961 28.04072266 106.72709961 27.70043945 105.48925781 C27.39408569 104.36596069 27.39408569 104.36596069 27.08154297 103.2199707 C26.65511522 101.44866234 26.65511522 101.44866234 25.5090332 100.45410156 C21.5490332 114.97410156 17.5890332 129.49410156 13.5090332 144.45410156 C13.8390332 144.78410156 14.1690332 145.11410156 14.5090332 145.45410156 C15.02336914 144.77927734 15.02336914 144.77927734 15.5480957 144.09082031 C31.52188052 124.45801582 56.30300807 112.72453387 81.09301758 109.67675781 C96.42124326 108.26413233 114.2574728 107.54070852 127.5090332 116.45410156 C131.50751212 119.89894494 133.65809906 123.66339013 135.7590332 128.45410156 C138.17714736 133.62792374 141.39349455 135.92120699 146.13793945 138.93847656 C151.75210924 142.52710568 155.15700158 146.96276363 157.0793457 153.34863281 C157.54738219 155.6420116 157.64185675 157.7398622 157.6340332 160.07910156 C157.63661133 160.85511719 157.63918945 161.63113281 157.6418457 162.43066406 C157.5090332 164.45410156 157.5090332 164.45410156 156.5090332 166.45410156 C154.85967773 166.02097656 154.85967773 166.02097656 153.17700195 165.57910156 C129.66776102 159.58377841 108.51637768 164.72200677 87.59692383 176.69897461 C51.42312449 198.21086016 30.95735937 229.93008137 20.0168457 270.02832031 C16.29489199 283.66824278 16.29489199 283.66824278 14.5090332 285.45410156 C13.07956849 285.54964555 11.64540656 285.57598595 10.2127533 285.57435608 C9.28582169 285.57573074 8.35889008 285.57710541 7.40386963 285.57852173 C6.37888367 285.57492645 5.35389771 285.57133118 4.29785156 285.56762695 C2.68829338 285.56784599 2.68829338 285.56784599 1.04621887 285.56806946 C-2.51958196 285.5673698 -6.08533129 285.55957494 -9.65112305 285.55175781 C-12.11592073 285.54989382 -14.58071878 285.54846983 -17.04551697 285.54747009 C-23.54750585 285.54364343 -30.04947255 285.53381189 -36.55145264 285.52276611 C-43.18037497 285.51201904 -49.80930373 285.50797315 -56.43823242 285.50292969 C-69.45582003 285.49218975 -82.47339224 285.47530253 -95.4909668 285.45410156 C-94.95977614 280.53197433 -94.2379679 276.0511015 -92.73535156 271.31591797 C-92.37234955 270.15995117 -92.00934753 269.00398438 -91.63534546 267.81298828 C-91.03987411 265.95311279 -91.03987411 265.95311279 -90.43237305 264.05566406 C-90.01219139 262.72578677 -89.59266236 261.39570313 -89.17373657 260.06542969 C-88.27720913 257.22281353 -87.37653121 254.38156053 -86.47250366 251.5413208 C-85.02989507 247.00846358 -83.59700911 242.47257064 -82.16601562 237.93603516 C-81.67852686 236.39089515 -81.19102377 234.84575966 -80.70350647 233.30062866 C-80.46133959 232.53308636 -80.21917271 231.76554405 -79.96966743 230.97474289 C-79.23022582 228.63232468 -78.48987378 226.29019605 -77.74925232 223.94815063 C-73.34169048 210.00740147 -69.0007035 196.04654676 -64.6784668 182.07910156 C-63.20908777 177.33540326 -61.73886929 172.59196552 -60.26831055 167.84863281 C-59.89207047 166.63496536 -59.51583038 165.42129791 -59.12818909 164.17085266 C-56.03043284 154.18297549 -52.92063532 144.1988739 -49.80737305 134.21582031 C-49.56137234 133.42689833 -49.31537163 132.63797634 -49.06191635 131.82514763 C-46.5300366 123.70556172 -43.9971572 115.58628951 -41.46165657 107.46783352 C-36.25781482 90.80379915 -31.07509848 74.13379009 -25.95537186 57.44369698 C-25.18271456 54.92598401 -24.40900619 52.40859682 -23.63485718 49.89134216 C-23.38393248 49.07541627 -23.13300777 48.25949038 -22.87447929 47.41883945 C-22.37450816 45.79324522 -21.87448452 44.16766713 -21.37440681 42.54210567 C-19.92495126 37.8280908 -18.48278983 33.11192149 -17.04595089 28.39404678 C-16.16135648 25.49526396 -15.2701976 22.59853023 -14.37724495 19.70231247 C-13.9659749 18.36334774 -13.55752787 17.02351212 -13.15212822 15.68275833 C-12.59890253 13.8541991 -12.03482799 12.02893263 -11.47021484 10.20385742 C-11.15843796 9.18368027 -10.84666107 8.16350311 -10.5254364 7.1124115 C-8.18871773 1.1076701 -6.51909295 -0.04892377 0 0 Z M110.5090332 130.45410156 C111.00055802 135.31542651 111.00055802 135.31542651 113.5090332 137.45410156 C116.09257539 137.62097604 116.09257539 137.62097604 118.5090332 137.45410156 C118.8390332 136.79410156 119.1690332 136.13410156 119.5090332 135.45410156 C116.5390332 133.80410156 113.5690332 132.15410156 110.5090332 130.45410156 Z " fill="#A9A9AA" transform="translate(541.490966796875,155.5458984375)"/>
<path d="M0 0 C29.04 0 58.08 0 88 0 C88 69.96 88 139.92 88 212 C115.39 212 142.78 212 171 212 C171 233.78 171 255.56 171 278 C114.57 278 58.14 278 0 278 C0 186.26 0 94.52 0 0 Z " fill="#115881" transform="translate(752,160)"/>
<path d="M0 0 C17.43679377 14.70057553 27.7705213 37.19512873 29.8125 59.7355957 C31.81606385 88.60726381 27.60768917 116.66927009 8.02709961 139.19897461 C-8.32148866 157.28404883 -28.97777664 166.39557149 -53.2578125 167.6953125 C-77.11050832 168.54083717 -97.73144184 160.74392439 -115.64453125 145.1328125 C-133.59176002 128.31590075 -142.34862177 104.53511855 -143.37890625 80.34765625 C-143.96753317 56.28301825 -140.33436356 34.36501608 -126 14.4375 C-125.10861328 13.17679688 -125.10861328 13.17679688 -124.19921875 11.890625 C-113.90460285 -1.83552953 -99.36240614 -11.61945143 -83 -16.5625 C-82.10925781 -16.8615625 -81.21851563 -17.160625 -80.30078125 -17.46875 C-52.62453137 -25.45015183 -22.16530385 -17.47214003 0 0 Z " fill="#0F5780" transform="translate(1080,564.5625)"/>
<path d="M0 0 C89.44146659 0 89.44146659 0 114.59082031 24.55566406 C134.22884212 44.68361572 138.42274576 71.34478677 138.14453125 98.26953125 C137.66693974 122.02097254 129.84163403 144.79695751 113 162 C81.60154373 189.61704543 39.74889617 185 0 185 C0 123.95 0 62.9 0 0 Z " fill="#105880" transform="translate(1195,546)"/>
<path d="M0 0 C7.74977997 6.82586622 14.57337638 14.18001933 20 23 C20.58136719 23.91007813 21.16273438 24.82015625 21.76171875 25.7578125 C38.33230125 52.71646081 42.02347341 85.88404708 35.19433594 116.48779297 C30.78255557 134.83802309 23.35565268 150.62297265 11 165 C10.22462891 165.99193359 10.22462891 165.99193359 9.43359375 167.00390625 C-5.79860149 185.90099057 -31.46623706 197.76821724 -55.23046875 200.7578125 C-68.75392168 201.62667683 -82.72636379 202.02701533 -96 199 C-97.15886719 198.75507812 -98.31773437 198.51015625 -99.51171875 198.2578125 C-124.56635969 192.34104254 -147.99507787 176.78001088 -162 154.9375 C-180.77026329 124.21429165 -185.7948947 90.78717835 -177.5390625 55.71875 C-172.31987283 35.48517774 -161.83912695 18.58291933 -147 4 C-146.23945312 3.24074219 -145.47890625 2.48148438 -144.6953125 1.69921875 C-105.62471263 -35.15308699 -40.31453796 -33.25726403 0 0 Z M-127 14 C-127.73605469 14.58136719 -128.47210937 15.16273438 -129.23046875 15.76171875 C-145.96460833 29.50041854 -155.20034871 51.99349863 -158 73 C-160.10660573 103.99456159 -155.16801377 131.93522861 -134.4765625 155.92578125 C-119.03525151 172.29538219 -97.97833739 181.64022989 -75.45410156 182.35180664 C-50.69641056 182.60514363 -28.70384173 175.40731357 -10.625 158.0625 C9.25811078 137.15150628 15.79794861 110.66370066 15.22265625 82.55078125 C15.01223357 76.22858414 14.39579245 70.1755701 13 64 C12.77828125 62.86433594 12.5565625 61.72867188 12.328125 60.55859375 C7.55644046 39.33360072 -5.10578041 20.16635458 -23.25244141 8.0859375 C-54.86572122 -11.55863761 -98.46086412 -10.66942254 -127 14 Z " fill="#FCFCFD" transform="translate(1095,550)"/>
<path d="M0 0 C95.55706679 0 95.55706679 0 112.8125 6.1875 C114.1128418 6.64032349 114.1128418 6.64032349 115.43945312 7.10229492 C140.62824936 16.18040783 160.79606128 33.15094165 172.375 57.5 C179.96483756 74.09776163 182.36877702 91.08940177 182.31567383 109.18579102 C182.31250734 111.43229527 182.33611032 113.67748447 182.36132812 115.92382812 C182.4185492 128.79416896 180.44742842 140.90367041 176.25 153.125 C175.99250977 153.87869873 175.73501953 154.63239746 175.46972656 155.40893555 C166.68299356 180.23171999 149.20166415 197.93437782 125.80297852 209.32080078 C115.07230946 214.39892565 104.68666826 217.06109971 93 219 C87.06 219.99 87.06 219.99 81 221 C54.27 221 27.54 221 0 221 C0 148.07 0 75.14 0 0 Z M22 18 C22 79.05 22 140.1 22 203 C79.21645944 205.18376925 79.21645944 205.18376925 130 184 C130.76441406 183.43667969 131.52882813 182.87335938 132.31640625 182.29296875 C145.2134505 171.91980791 152.17041972 156.70617447 156.875 141.25 C157.07834961 140.5897583 157.28169922 139.9295166 157.49121094 139.24926758 C164.7279438 113.77333409 160.86555266 81.77326882 148.40649414 58.64892578 C136.83364007 38.30179638 118.93531082 27.84922065 97.01953125 21.078125 C72.31768909 15.77251532 47.12613758 18 22 18 Z " fill="#FCFDFD" transform="translate(1173,528)"/>
<path d="M0 0 C23.43 0 46.86 0 71 0 C71 81.84 71 163.68 71 248 C68.23026329 244.30701771 66.29732303 240.7068164 64.3671875 236.5625 C64.01834 235.82305145 63.66949249 235.08360291 63.31007385 234.32174683 C62.16080935 231.88313495 61.01793721 229.44158293 59.875 227 C59.0669325 225.28250547 58.25841333 223.56522337 57.44946289 221.84814453 C55.78033445 218.30377208 54.11357786 214.75829935 52.44873047 211.21191406 C50.1822874 206.38543394 47.90764804 201.56287141 45.62890625 196.7421875 C45.28049179 196.00509552 44.93207733 195.26800354 44.57310486 194.50857544 C43.87567253 193.03319297 43.17821885 191.55782059 42.48074341 190.0824585 C40.72535389 186.36812924 38.97210637 182.65278933 37.21875 178.9375 C34.38669013 172.93689791 31.55328122 166.93693507 28.71875 160.9375 C27.63622641 158.64602316 26.55372191 156.35453731 25.47122192 154.06304932 C24.81381307 152.67153099 24.15633035 151.28004755 23.49874878 149.88861084 C23.19744049 149.25102844 22.8961322 148.61344604 22.58569336 147.95654297 C22.27588028 147.30478088 21.9660672 146.6530188 21.64686584 145.98150635 C20.98725413 144.57649964 20.34083186 143.16524628 19.70579529 141.7489624 C17.70005584 137.33831002 15.52210967 133.1392752 13.03230572 128.97909164 C-1.94402395 103.71179431 -2.01646871 80.10837259 -1.09863281 51.3092041 C-0.90230339 44.47339255 -0.83205118 37.63513847 -0.73937988 30.79728699 C-0.58670567 20.5266556 -0.27938986 10.27145787 0 0 Z " fill="#A8A8A9" transform="translate(1695,158)"/>
<path d="M0 0 C14.41967321 11.95997934 25.33063615 25.71661197 32.0625 43.3125 C32.0625 43.9725 32.0625 44.6325 32.0625 45.3125 C23.4825 45.3125 14.9025 45.3125 6.0625 45.3125 C5.0725 43.37375 4.0825 41.435 3.0625 39.4375 C-6.43122066 21.55298916 -21.90223257 8.34253666 -41.2109375 2.0546875 C-63.65676703 -4.05520879 -90.28574837 -2.63340531 -110.9375 8.3125 C-131.37203328 20.27799017 -143.77983888 38.20737305 -150.125 60.75 C-156.94778129 87.98587998 -155.83580219 118.32923097 -141.796875 143.2578125 C-130.79021865 161.61195222 -114.31756333 175.83699116 -93.375 181.25 C-91.57103606 181.64535349 -89.75751602 181.99923977 -87.9375 182.3125 C-86.91011719 182.49554687 -85.88273438 182.67859375 -84.82421875 182.8671875 C-61.79948459 185.50519724 -38.15735887 183.22922055 -18.9375 169.3125 C-15.43507788 166.47141136 -12.15548653 163.47059168 -8.9375 160.3125 C-8.30972656 159.70921875 -7.68195313 159.1059375 -7.03515625 158.484375 C-1.152373 152.3481385 2.23816817 144.82697657 6.0625 137.3125 C14.6425 137.3125 23.2225 137.3125 32.0625 137.3125 C27.93839079 149.68482762 22.54749617 159.4671838 14.0625 169.3125 C13.26779297 170.32376953 13.26779297 170.32376953 12.45703125 171.35546875 C-3.59134484 191.20790436 -29.86374488 201.0609538 -54.51953125 203.8359375 C-84.96124903 206.72990886 -113.46385135 200.18663101 -137.6875 180.875 C-154.42082222 166.63955052 -165.26058156 149.76584323 -172.3125 129.0625 C-172.55121826 128.36680908 -172.78993652 127.67111816 -173.03588867 126.9543457 C-176.54816619 116.0542179 -177.28735462 105.13310835 -177.25317383 93.75976562 C-177.25002371 91.57891278 -177.27353414 89.39943557 -177.29882812 87.21875 C-177.35737552 74.4073357 -175.74910091 61.8252093 -171.25 49.75 C-170.99508789 49.05293945 -170.74017578 48.35587891 -170.47753906 47.63769531 C-160.28068603 20.7262875 -140.76054725 0.03947189 -114.9375 -12.6875 C-78.46439845 -28.78862329 -31.80107349 -24.53941104 0 0 Z " fill="#FBFCFD" transform="translate(847.9375,546.6875)"/>
<path d="M0 0 C1.37815517 1.18090014 2.73237457 2.39025178 4.0625 3.625 C4.83078125 4.31464844 5.5990625 5.00429688 6.390625 5.71484375 C14.978076 13.80467755 20.38204476 23.08327508 23.0625 34.625 C23.0625 36.605 23.0625 38.585 23.0625 40.625 C15.1425 40.625 7.2225 40.625 -0.9375 40.625 C-2.2575 36.995 -3.5775 33.365 -4.9375 29.625 C-11.92232007 18.74167571 -21.18192957 11.15667656 -33.8125 7.87890625 C-50.47632605 4.66580149 -66.58113139 6.2381436 -80.9375 15.625 C-88.47913133 20.76702136 -92.51796192 27.89547715 -94.9375 36.625 C-96.04491668 48.81946043 -94.82971811 60.00730877 -86.8046875 69.7890625 C-75.5317756 80.87330642 -58.28990795 85.02498474 -43.50363159 89.37854004 C8.27052414 104.6675891 8.27052414 104.6675891 19.8125 125.1796875 C25.9759798 137.23699485 27.71883021 153.89402633 23.96875 167.03125 C18.10722107 184.47037416 7.4896139 197.14256189 -8.81542969 205.63818359 C-29.33836682 215.18186881 -55.82741381 215.75906145 -77.0859375 208.55859375 C-95.87507829 201.24097208 -108.64943348 190.11308079 -117.25 171.875 C-119.91433994 165.56239376 -119.9375 160.61261502 -119.9375 153.625 C-112.3475 153.625 -104.7575 153.625 -96.9375 153.625 C-96.40125 155.56375 -95.865 157.5025 -95.3125 159.5 C-93.21164523 166.34833796 -90.46367 173.17246232 -85.25390625 178.2734375 C-83.9375 179.625 -83.9375 179.625 -83.9375 181.625 C-83.08671875 182.02912109 -83.08671875 182.02912109 -82.21875 182.44140625 C-79.84170888 183.67469984 -77.67699601 185.09563011 -75.4375 186.5625 C-61.8883652 194.55903122 -43.36040757 194.83645088 -28.1875 191.5 C-16.4690147 187.82094066 -7.38161274 181.49876255 -1.5625 170.5 C-0.99689704 169.21863399 -0.45300511 167.9273287 0.0625 166.625 C0.475 165.59375 0.8875 164.5625 1.3125 163.5 C3.2344961 153.56968684 3.06941243 143.59965436 -1.9375 134.625 C-14.06235358 117.61069426 -34.09781977 113.26388293 -53.21630859 108.22851562 C-99.26628832 96.05553623 -99.26628832 96.05553623 -111.69140625 75.88671875 C-119.42119602 61.85678686 -119.79875503 45.42085196 -117.32421875 29.73828125 C-112.27198021 13.06811972 -100.03930795 2.39825995 -85.41796875 -5.78515625 C-59.98407255 -18.5607078 -23.15628881 -17.25685302 0 0 Z " fill="#FCFCFD" transform="translate(1667.9375,538.375)"/>
<path d="M0 0 C38.28 0 76.56 0 116 0 C116 6.27 116 12.54 116 19 C85.31 19 54.62 19 23 19 C23 46.06 23 73.12 23 101 C50.39 101 77.78 101 106 101 C106 107.27 106 113.54 106 120 C78.61 120 51.22 120 23 120 C23 147.39 23 174.78 23 203 C53.69 203 84.38 203 116 203 C116 209.27 116 215.54 116 222 C77.72 222 39.44 222 0 222 C0 148.74 0 75.48 0 0 Z " fill="#F7F9FB" transform="translate(1396,527)"/>
<path d="M0 0 C11.56783148 8.22866363 19.69642879 19.9351304 22.5234375 33.9921875 C25.28549986 53.22797893 23.5043641 72.35192721 11.91015625 88.53125 C3.37609046 99.40760114 -8.91272544 106.60043868 -22.7265625 108.6171875 C-37.42058367 109.92757616 -51.64368028 107.83638423 -63.5625 98.46875 C-64.27664063 97.85773438 -64.99078125 97.24671875 -65.7265625 96.6171875 C-66.42007812 96.06804687 -67.11359375 95.51890625 -67.828125 94.953125 C-77.06640858 86.85625098 -83.70025048 72.14862649 -85.00805664 60.00292969 C-85.12727436 57.30397999 -85.14356209 54.63086125 -85.1015625 51.9296875 C-85.09068604 50.97070557 -85.07980957 50.01172363 -85.06860352 49.02368164 C-84.70000379 32.42000247 -80.65445084 17.98493314 -68.96875 5.6171875 C-49.7860986 -11.4934702 -21.66804842 -14.09474994 0 0 Z " fill="#A6A6A7" transform="translate(391.7265625,588.3828125)"/>
<path d="M0 0 C-0.59167969 0.88300781 -1.18335938 1.76601563 -1.79296875 2.67578125 C-11.03877238 16.63939072 -17.82796989 31.0055634 -19 48 C-18.70867188 47.35933594 -18.41734375 46.71867187 -18.1171875 46.05859375 C-15.45577128 40.44283814 -12.69162612 35.19169875 -8 31 C-7.01 30.67 -6.02 30.34 -5 30 C0.87034312 47.37211471 6.52955763 64.79484255 11.94213867 82.31567383 C13.08732763 86.01776102 14.24181827 89.71687475 15.39648438 93.41601562 C16.13076698 95.78628534 16.86451269 98.15672147 17.59765625 100.52734375 C17.94127701 101.625056 18.28489777 102.72276825 18.63893127 103.85374451 C19.10588661 105.37428185 19.10588661 105.37428185 19.58227539 106.92553711 C19.99456139 108.25566078 19.99456139 108.25566078 20.41517639 109.61265564 C21 112 21 112 21 116 C11.90769199 116.04628063 2.81542434 116.08184737 -6.27697563 116.10362434 C-10.4986575 116.11407464 -14.72025895 116.12825645 -18.94189453 116.15087891 C-23.01377277 116.17256303 -27.08557353 116.18455923 -31.15750504 116.18975449 C-32.71329087 116.19345824 -34.26907232 116.20069046 -35.82482529 116.21146011 C-37.99903374 116.22591638 -40.17291942 116.22798044 -42.34716797 116.22705078 C-43.58626923 116.231492 -44.82537048 116.23593323 -46.10202026 116.24050903 C-49 116 -49 116 -51 114 C-58.83698178 87.51544811 -52.484539 55.30468451 -40.1875 31.1875 C-32.98603769 18.69746381 -23.4242761 8.9607991 -10.625 2.4375 C-9.57107056 1.89863159 -9.57107056 1.89863159 -8.49584961 1.34887695 C-3.38203437 -1.12734479 -3.38203437 -1.12734479 0 0 Z " fill="#175C84" transform="translate(669,325)"/>
<path d="M0 0 C21.24266598 -0.45250649 37.70822874 6.40296709 53.17578125 20.7421875 C66.20924223 34.2315088 71.1659335 50.95832351 71.17578125 69.3046875 C71.18802734 70.48611328 71.20027344 71.66753906 71.21289062 72.88476562 C71.24480416 92.08607813 65.05751156 108.90858839 51.98828125 123.1171875 C36.64717733 137.95569675 18.10216803 142.69204906 -2.6015625 142.390625 C-19.56935062 141.79130813 -34.96701116 133.88731969 -47.01171875 122.1171875 C-53.19037751 115.0819857 -57.60299569 107.80107303 -61.01171875 99.1171875 C-61.36516357 98.25206543 -61.7186084 97.38694336 -62.08276367 96.49560547 C-65.20106165 88.17180322 -65.61562134 80.57390747 -65.51171875 71.7421875 C-65.5271875 70.43507813 -65.54265625 69.12796875 -65.55859375 67.78125 C-65.48478138 49.18053338 -58.98231129 33.61761862 -46.16015625 20.2265625 C-33.26709761 7.56792311 -18.07990681 0.70349832 0 0 Z M-20.01171875 17.1171875 C-21.29369141 17.78814453 -21.29369141 17.78814453 -22.6015625 18.47265625 C-35.38370371 25.64218808 -44.3292736 36.09338192 -49.01171875 50.1171875 C-53.43517477 65.9910754 -52.78891024 84.12467369 -46.01171875 99.1171875 C-45.57730469 100.10976563 -45.14289063 101.10234375 -44.6953125 102.125 C-38.04864925 115.7213083 -26.81475085 123.49682854 -12.88671875 128.4921875 C2.74423543 132.87625394 18.40938336 130.15018022 32.48828125 122.3046875 C44.92915938 114.10122256 51.65598053 102.1496994 55.98828125 88.1171875 C59.56695229 69.10549761 57.06724782 50.60508684 46.98828125 34.1171875 C39.01470231 22.587165 26.48811101 16.06452772 12.98828125 13.1171875 C1.85723604 12.26022586 -9.98699596 11.63836269 -20.01171875 17.1171875 Z " fill="#125880" transform="translate(358.01171875,566.8828125)"/>
<path d="M0 0 C24.75 0 49.5 0 75 0 C75 3.63 75 7.26 75 11 C54.87 11 34.74 11 14 11 C14 28.16 14 45.32 14 63 C31.16 63 48.32 63 66 63 C66 66.96 66 70.92 66 75 C48.84 75 31.68 75 14 75 C14 96.12 14 117.24 14 139 C9.38 139 4.76 139 0 139 C0 93.13 0 47.26 0 0 Z " fill="#115880" transform="translate(455,569)"/>
<path d="M0 0 C0.66 0.33 1.32 0.66 2 1 C-5.59 8.59 -13.18 16.18 -21 24 C-21 19.6782199 -18.39351052 17.78251059 -15.5625 14.8125 C-15.02206055 14.23604736 -14.48162109 13.65959473 -13.92480469 13.06567383 C-9.5267051 8.42820865 -4.9053275 4.10016011 0 0 Z " fill="#6694AE" transform="translate(1288,186)"/>
<path d="M0 0 C0.66 0.33 1.32 0.66 2 1 C-4.93 7.93 -11.86 14.86 -19 22 C-19 17.83256273 -16.7220201 16.1175327 -14 13.25 C-13.50395264 12.71793945 -13.00790527 12.18587891 -12.49682617 11.63769531 C-8.56892151 7.476431 -4.4406485 3.61359362 0 0 Z " fill="#6A97B0" transform="translate(991,185)"/>
<path d="M0 0 C0.66 0.33 1.32 0.66 2 1 C-2.62 5.62 -7.24 10.24 -12 15 C-12.66 14.67 -13.32 14.34 -14 14 C-12.60919892 12.41224451 -11.21211596 10.82999061 -9.8125 9.25 C-8.64654297 7.92742187 -8.64654297 7.92742187 -7.45703125 6.578125 C-5.11544754 4.12113732 -2.69841735 2.05137234 0 0 Z " fill="#6895AF" transform="translate(650,332)"/>
<path d="M0 0 C0 3 0 3 -1.53125 4.82421875 C-2.1809375 5.43910156 -2.830625 6.05398438 -3.5 6.6875 C-4.1496875 7.31011719 -4.799375 7.93273437 -5.46875 8.57421875 C-5.9740625 9.04472656 -6.479375 9.51523437 -7 10 C-7 5.69032084 -4.83274712 4.10253255 -2 1 C-1.34 0.67 -0.68 0.34 0 0 Z " fill="#729CB4" transform="translate(663,355)"/>
</svg>
