<?xml version="1.0" standalone="no"?>
<!DOCTYPE svg PUBLIC "-//W3C//DTD SVG 20010904//EN"
 "http://www.w3.org/TR/2001/REC-SVG-20010904/DTD/svg10.dtd">
<svg version="1.0" xmlns="http://www.w3.org/2000/svg"
 width="1992.000000pt" height="928.000000pt" viewBox="0 0 1992.000000 928.000000"
 preserveAspectRatio="xMidYMid meet">

<g transform="translate(0.000000,928.000000) scale(0.100000,-0.100000)"
fill="#000000" stroke="none">
<path d="M15620 6300 l0 -1430 355 0 355 0 2 656 3 657 299 -652 300 -651 359
0 c338 0 359 1 353 18 -4 9 -298 650 -653 1425 l-647 1407 -363 0 -363 0 0
-1430z"/>
<path d="M13648 7710 c-595 -54 -1089 -467 -1233 -1036 -70 -274 -56 -609 36
-871 157 -443 536 -779 1005 -889 145 -34 409 -44 559 -20 532 82 961 442
1124 943 51 159 65 258 65 468 -1 206 -16 307 -70 471 -153 460 -550 810
-1032 909 -149 31 -293 39 -454 25z m333 -820 c156 -52 258 -160 316 -335 25
-75 27 -92 27 -255 0 -164 -2 -180 -27 -257 -61 -182 -184 -301 -357 -344 -85
-21 -241 -17 -326 9 -232 71 -364 285 -364 592 0 327 152 552 409 606 90 19
240 11 322 -16z"/>
<path d="M10629 7690 c-621 -60 -1046 -447 -1172 -1065 -30 -150 -32 -496 -3
-650 104 -558 463 -940 990 -1054 191 -42 487 -44 671 -6 439 91 759 350 926
750 31 74 89 266 89 298 0 4 -204 7 -454 7 l-453 0 -42 -64 c-79 -122 -193
-196 -334 -217 -249 -37 -446 107 -519 380 -30 110 -30 334 0 443 29 107 68
183 129 248 201 217 567 171 729 -91 l37 -59 454 0 455 0 -7 33 c-31 155 -103
339 -186 474 -74 120 -253 299 -371 372 -154 94 -313 153 -498 185 -109 19
-330 27 -441 16z"/>
<path d="M2260 6285 l0 -1385 433 2 432 3 3 523 2 522 390 0 390 0 0 325 0
325 -390 0 -390 0 0 190 0 190 540 0 540 0 0 345 0 345 -975 0 -975 0 0 -1385z"/>
<path d="M7530 6285 l0 -1385 850 0 850 0 0 330 0 330 -420 0 -420 0 0 1055 0
1055 -430 0 -430 0 0 -1385z"/>
<path d="M6594 5999 c-242 -127 -390 -386 -425 -744 -11 -115 0 -294 21 -351
l10 -24 348 0 349 0 -129 413 c-70 226 -130 417 -132 422 -7 21 -78 -70 -116
-148 l-40 -82 6 60 c14 148 70 311 141 417 56 82 55 84 -33 37z"/>
<path d="M6090 2900 l0 -1360 5785 0 5785 0 0 1360 0 1360 -5785 0 -5785 0 0
-1360z m1860 1119 c136 -16 237 -46 355 -104 201 -98 347 -242 446 -438 27
-55 49 -105 49 -113 0 -12 -22 -14 -127 -12 l-127 3 -41 73 c-107 194 -256
313 -465 372 -115 33 -316 38 -443 12 -346 -72 -592 -349 -647 -730 -18 -120
-8 -364 19 -472 45 -177 160 -363 289 -466 69 -55 214 -126 302 -149 85 -22
285 -30 377 -16 103 16 218 55 291 98 121 72 234 194 293 315 l23 48 128 0
c91 0 128 -3 128 -12 0 -28 -85 -183 -140 -257 -164 -217 -412 -354 -710 -390
-349 -44 -664 53 -900 276 -199 188 -311 427 -341 724 -27 276 44 570 191 790
63 94 221 245 317 302 219 131 464 180 733 146z m2561 -22 c326 -84 575 -290
714 -590 128 -276 138 -663 26 -953 -143 -371 -459 -622 -848 -674 -136 -19
-333 -8 -458 24 -304 77 -560 291 -695 579 -129 275 -145 623 -44 925 88 265
307 509 559 623 81 36 219 77 305 89 114 16 332 4 441 -23z m5836 22 c272 -37
480 -200 547 -428 31 -104 34 -101 -103 -101 l-119 0 -17 52 c-43 133 -167
240 -319 277 -68 17 -239 15 -309 -4 -202 -53 -320 -211 -304 -407 8 -94 38
-156 108 -223 76 -72 135 -99 405 -180 374 -112 469 -157 570 -268 89 -97 124
-199 124 -357 0 -172 -49 -292 -169 -410 -87 -86 -174 -137 -296 -172 -70 -20
-102 -23 -250 -23 -192 0 -268 16 -400 81 -189 92 -316 266 -338 462 l-5 42
119 0 119 0 6 -27 c23 -105 52 -162 120 -233 99 -104 228 -146 419 -137 219
10 363 100 425 264 19 49 21 73 18 158 -5 122 -29 177 -112 252 -69 63 -142
94 -391 166 -415 120 -506 166 -612 310 -62 85 -87 173 -87 312 0 86 4 126 21
180 93 299 434 469 830 414z m-1227 -104 l0 -95 -465 0 -465 0 0 -410 0 -410
415 0 415 0 0 -95 0 -95 -415 0 -415 0 0 -415 0 -415 465 0 465 0 0 -95 0 -95
-580 0 -580 0 0 1110 0 1110 580 0 580 0 0 -95z m-2480 70 c396 -60 678 -263
824 -593 108 -245 123 -630 34 -902 -117 -360 -376 -580 -788 -672 -87 -19
-134 -21 -537 -25 l-443 -5 0 1106 0 1106 408 0 c304 0 431 -4 502 -15z"/>
<path d="M10095 3820 c-169 -26 -324 -101 -442 -213 -165 -156 -249 -341 -275
-598 -37 -364 98 -708 347 -884 159 -113 301 -156 515 -156 334 1 598 157 744
441 143 276 152 654 21 936 -106 230 -299 392 -540 454 -92 24 -278 34 -370
20z"/>
<path d="M11960 2900 l0 -922 323 4 c309 5 326 6 422 31 55 15 143 48 195 73
80 40 109 62 185 138 69 69 101 111 132 171 158 306 146 774 -28 1046 -89 140
-229 252 -384 308 -145 52 -229 63 -552 68 l-293 6 0 -923z"/>
<path d="M3475 3596 c-256 -49 -458 -239 -527 -493 -30 -112 -30 -299 0 -406
58 -206 181 -355 365 -442 105 -51 199 -68 332 -62 308 13 542 200 626 503 31
109 31 294 1 407 -65 239 -246 423 -477 482 -85 22 -236 27 -320 11z m280
-131 c242 -63 395 -282 395 -565 0 -300 -163 -519 -426 -575 -87 -18 -141 -18
-228 0 -262 55 -426 276 -426 569 0 117 21 213 65 303 63 127 188 230 326 267
72 20 220 20 294 1z"/>
<path d="M4550 2895 l0 -695 70 0 70 0 0 320 0 320 258 2 257 3 0 55 0 55
-257 3 -258 2 0 255 0 255 303 2 302 3 3 58 3 57 -376 0 -375 0 0 -695z"/>
</g>
</svg>
